<svg width="24" height="22" viewBox="0 0 24 22" fill="none" xmlns="http://www.w3.org/2000/svg">
<path fill-rule="evenodd" clip-rule="evenodd" d="M12.0426 0.00364608C12.0097 0.00801444 11.9021 0.0245068 11.8034 0.0402958C11.7047 0.0560849 11.5048 0.0980471 11.3592 0.133568C11.2135 0.169088 10.929 0.247219 10.727 0.307192C10.5249 0.367164 10.2174 0.463046 10.0435 0.520279C9.86969 0.577512 9.50269 0.703028 9.228 0.799206C8.95331 0.895384 8.48045 1.06488 8.1772 1.17585C7.87396 1.28683 7.49898 1.42753 7.34393 1.48854C7.18887 1.54955 6.63541 1.77146 6.11401 1.9817C5.59263 2.19192 4.98522 2.44156 4.76421 2.53644C4.54321 2.63131 4.22784 2.77148 4.06338 2.84791C3.89893 2.92436 3.59266 3.07135 3.38277 3.17458C3.17289 3.27781 2.84227 3.44817 2.64807 3.55318C2.45387 3.65819 2.18732 3.80914 2.05576 3.88862C1.9242 3.96808 1.71113 4.10421 1.58229 4.19109C1.45344 4.27798 1.24969 4.42824 1.1295 4.52503C1.00932 4.62182 0.817748 4.80144 0.703783 4.92422C0.589836 5.04698 0.44896 5.21823 0.390731 5.30476C0.332501 5.3913 0.242935 5.55372 0.191694 5.66571C0.134302 5.79115 0.0821547 5.94016 0.0558591 6.05383C0.0323827 6.15532 0.00849626 6.32191 0.0027724 6.42403C-0.0032761 6.53213 0.000824581 6.67828 0.012614 6.77381C0.0237371 6.86405 0.0524589 7.00565 0.0764308 7.08848C0.100403 7.1713 0.154976 7.31271 0.197691 7.40273C0.24039 7.49274 0.310118 7.61768 0.352611 7.68038C0.395105 7.74307 0.476606 7.84737 0.533742 7.91218C0.590861 7.97698 0.722185 8.09874 0.825556 8.18276C0.928928 8.26677 1.1451 8.43177 1.30593 8.5494C1.46678 8.66702 1.66842 8.80136 1.75404 8.84795C1.8422 8.89593 1.92204 8.95307 1.93819 8.97976C1.96399 9.02241 1.96479 9.05489 1.94678 9.32166C1.93583 9.48377 1.91892 10.0394 1.90919 10.5564C1.89946 11.0734 1.89002 12.1169 1.8882 12.8754C1.88638 13.6338 1.89112 14.3298 1.89874 14.422C1.91258 14.5896 1.91258 14.5896 1.81028 14.7219C1.75402 14.7947 1.68448 14.9076 1.65574 14.9729C1.62698 15.0381 1.59037 15.1447 1.57434 15.2097C1.55546 15.2863 1.54567 15.3931 1.54652 15.513C1.54757 15.6618 1.55678 15.7272 1.59348 15.8462C1.61861 15.9277 1.66946 16.0489 1.7065 16.1157C1.74353 16.1825 1.77384 16.2456 1.77384 16.256C1.77384 16.2663 1.73319 16.3329 1.68352 16.4039C1.63385 16.4749 1.5606 16.6009 1.52076 16.6839C1.4809 16.7669 1.42207 16.9215 1.39 17.0276C1.35793 17.1336 1.31255 17.3277 1.28914 17.4588C1.26573 17.5899 1.23458 17.793 1.21992 17.9101C1.20526 18.0272 1.17818 18.2979 1.15974 18.5117C1.14129 18.7254 1.11771 19.042 1.10736 19.215C1.09699 19.3881 1.08716 19.7796 1.08554 20.085C1.08275 20.6042 1.08504 20.6509 1.12062 20.8028C1.14153 20.8922 1.17868 21.0081 1.20314 21.0604C1.22761 21.1127 1.28552 21.1989 1.33179 21.2519C1.37807 21.3049 1.45995 21.3736 1.51374 21.4045C1.56752 21.4355 1.65765 21.4748 1.71404 21.4919C1.79388 21.5161 1.91957 21.5252 2.28222 21.5328C2.6515 21.5406 2.80003 21.5362 2.99984 21.5118C3.13841 21.4948 3.29225 21.4765 3.34172 21.4711C3.39468 21.4653 3.47962 21.4353 3.54842 21.398C3.62177 21.3582 3.6983 21.2968 3.75407 21.2329C3.80294 21.1769 3.86536 21.079 3.89278 21.0153C3.92273 20.9457 3.95285 20.8292 3.96821 20.7236C3.98229 20.6269 4.00283 20.4353 4.01387 20.2979C4.0273 20.1307 4.03056 19.8306 4.02374 19.3909C4.01812 19.0295 4.00546 18.6213 3.9956 18.4839C3.98574 18.3465 3.96563 18.1216 3.95092 17.9841C3.93623 17.8467 3.90583 17.626 3.88342 17.4936C3.86098 17.3613 3.82283 17.1789 3.79862 17.0884C3.77441 16.9979 3.73143 16.8647 3.7031 16.7923C3.67479 16.7199 3.60922 16.5793 3.55741 16.48C3.48664 16.3442 3.46621 16.289 3.47528 16.2578C3.48192 16.2351 3.50533 16.1909 3.52731 16.1596C3.54926 16.1284 3.58941 16.0492 3.61653 15.9838C3.64366 15.9183 3.67623 15.8189 3.68892 15.7629C3.70164 15.7069 3.71202 15.5861 3.71202 15.4945C3.71202 15.4029 3.70169 15.2821 3.68908 15.2261C3.67645 15.1701 3.64154 15.066 3.61149 14.9948C3.58143 14.9235 3.51972 14.8159 3.47434 14.7555C3.42111 14.6848 3.39222 14.629 3.39297 14.5982C3.39361 14.572 3.39461 13.9341 3.39523 13.1808C3.39584 12.4274 3.40417 11.3571 3.41372 10.8022C3.42916 9.90646 3.43422 9.79096 3.45886 9.77123C3.4809 9.75361 3.50292 9.75583 3.5657 9.782C3.60918 9.80012 3.84731 9.90515 4.09487 10.0154C4.42578 10.1627 4.5493 10.226 4.56127 10.2545C4.57315 10.2827 4.55437 10.419 4.49216 10.756C4.44519 11.0105 4.38725 11.3561 4.36342 11.5241C4.33958 11.6921 4.30039 12.0086 4.27633 12.2275C4.25227 12.4464 4.21795 12.7254 4.20006 12.8476C4.18217 12.9698 4.15206 13.203 4.13318 13.3659C4.1143 13.5288 4.08937 13.7703 4.07782 13.9027C4.06625 14.035 4.05636 14.3646 4.05581 14.6351C4.05484 15.127 4.05484 15.127 4.10384 15.1967C4.13079 15.235 4.1923 15.2937 4.24053 15.3271C4.28877 15.3604 4.46662 15.4678 4.63577 15.5657C4.80492 15.6636 5.10094 15.822 5.29359 15.9176C5.48623 16.0133 5.77072 16.1558 5.92578 16.2342C6.08083 16.3127 6.36916 16.4463 6.56651 16.5311C6.76385 16.616 7.063 16.7362 7.23126 16.7983C7.39952 16.8604 7.65325 16.9483 7.7951 16.9936C7.93695 17.0389 8.19524 17.1134 8.3691 17.1593C8.54295 17.2051 8.81974 17.2673 8.9842 17.2974C9.14865 17.3276 9.50234 17.3817 9.77016 17.4177C10.038 17.4537 10.3494 17.4923 10.4622 17.5034C10.5749 17.5146 10.9171 17.5284 11.2225 17.5342C11.5619 17.5406 11.914 17.5363 12.1281 17.5231C12.3207 17.5113 12.5898 17.4893 12.7261 17.4743C12.8623 17.4594 13.1078 17.4259 13.2715 17.3999C13.4352 17.374 13.7043 17.3235 13.8695 17.2878C14.0347 17.2521 14.412 17.1601 14.7081 17.0834C15.0041 17.0066 15.3885 16.8993 15.5624 16.8448C15.7362 16.7904 16.0707 16.6756 16.3056 16.5898C16.5406 16.5039 16.9318 16.353 17.175 16.2545C17.4183 16.1561 17.7681 16.0101 17.9524 15.9302C18.1368 15.8504 18.3799 15.7415 18.4926 15.6883C18.6054 15.6352 18.8207 15.525 18.9711 15.4436C19.1214 15.3622 19.3235 15.2463 19.4202 15.1859C19.5168 15.1256 19.6303 15.0602 19.6724 15.0407C19.7145 15.0211 19.8052 14.96 19.8739 14.905C19.9463 14.847 20.0077 14.7819 20.0197 14.7504C20.0372 14.7047 20.0323 14.6432 19.9891 14.3641C19.9608 14.1816 19.9215 13.8823 19.9019 13.6991C19.8822 13.5158 19.84 13.1992 19.8082 12.9954C19.7763 12.7917 19.6576 12.1219 19.5444 11.5069C19.4311 10.892 19.3264 10.3138 19.3118 10.222C19.297 10.1302 19.2893 10.0367 19.2944 10.0143C19.3011 9.98552 19.3351 9.95966 19.4109 9.9259C19.4697 9.89965 19.9638 9.6851 20.5088 9.44912C21.0539 9.21312 21.658 8.94705 21.8513 8.85785C22.0447 8.76865 22.2984 8.64397 22.4152 8.58078C22.5319 8.51758 22.7118 8.41108 22.8147 8.34409C22.9177 8.27712 23.0754 8.1624 23.165 8.08915C23.2547 8.01591 23.3976 7.87797 23.4826 7.78263C23.5676 7.68728 23.67 7.55684 23.7101 7.49276C23.7503 7.42868 23.8133 7.3079 23.8501 7.22436C23.887 7.14083 23.9331 7.00583 23.9526 6.92439C23.9722 6.84295 23.9923 6.69718 23.9975 6.60047C24.0039 6.48045 23.9982 6.37085 23.9796 6.25525C23.9645 6.16211 23.9289 6.01603 23.9004 5.93061C23.8719 5.8452 23.8083 5.7029 23.7591 5.61436C23.71 5.52585 23.6236 5.39369 23.5672 5.32068C23.5109 5.24768 23.4038 5.13079 23.3294 5.06093C23.255 4.99108 23.1166 4.87687 23.0219 4.80714C22.9271 4.73741 22.7574 4.6236 22.6446 4.55418C22.5318 4.48479 22.255 4.33055 22.0295 4.21142C21.8039 4.0923 21.3311 3.84892 20.9787 3.67057C20.6263 3.49221 20.0881 3.21545 19.7826 3.05552C19.4772 2.89561 19.1024 2.70339 18.9497 2.62837C18.797 2.55336 18.5509 2.43666 18.4029 2.36904C18.2549 2.3014 17.9724 2.17722 17.775 2.09306C17.5777 2.00889 17.1971 1.85096 16.9293 1.74211C16.6614 1.63327 16.3154 1.48754 16.1604 1.41827C16.0053 1.34899 15.5786 1.14869 15.2121 0.973145C14.8456 0.797596 14.4381 0.608294 14.3065 0.552468C14.175 0.496642 13.9712 0.413402 13.8538 0.367479C13.7363 0.321574 13.571 0.259936 13.4864 0.230505C13.4018 0.201092 13.2439 0.152448 13.1354 0.122425C13.027 0.0924014 12.8655 0.0546595 12.7766 0.0385743C12.6877 0.0224706 12.4997 0.00623754 12.3587 0.00249852C12.2178 -0.0012405 12.0755 -0.000722284 12.0426 0.00364608ZM12.6898 1.68909C12.7968 1.71449 13.0197 1.78542 13.1853 1.84672C13.3509 1.90803 13.6094 2.01087 13.7598 2.07525C13.9101 2.13965 14.31 2.32521 14.6483 2.48763C14.9866 2.65006 15.3952 2.84212 15.5564 2.91446C15.7176 2.98679 16.1328 3.16184 16.4791 3.30344C16.8253 3.44505 17.2432 3.6193 17.4077 3.69065C17.5721 3.76201 17.8489 3.88701 18.0228 3.96842C18.1966 4.04984 18.508 4.20383 18.7148 4.31061C18.9215 4.41739 19.2944 4.61068 19.5434 4.7401C19.7925 4.86952 20.2192 5.08792 20.4917 5.22543C20.7642 5.36294 21.141 5.55624 21.3289 5.65501C21.5169 5.75376 21.7514 5.88281 21.8501 5.9418C21.9487 6.0008 22.0926 6.09479 22.1698 6.15067C22.2469 6.20655 22.3413 6.28903 22.3795 6.33396C22.4178 6.37888 22.4565 6.4368 22.4655 6.46268C22.4773 6.49612 22.4752 6.52746 22.4583 6.57135C22.4452 6.60526 22.3882 6.67475 22.3316 6.72574C22.275 6.77675 22.157 6.86668 22.0693 6.92558C21.9816 6.98447 21.8022 7.08893 21.6707 7.15767C21.5391 7.22644 21.2931 7.34494 21.1239 7.42101C20.9548 7.49711 20.4435 7.72152 19.9877 7.91977C19.5319 8.11799 18.8284 8.41963 18.4243 8.59007C18.0202 8.76053 17.5012 8.98148 17.271 9.08108C17.0407 9.18069 16.6909 9.33711 16.4936 9.42868C16.2962 9.52025 15.8849 9.71988 15.5795 9.87229C15.274 10.0247 14.7474 10.2872 14.4091 10.4556C14.0707 10.6241 13.6171 10.847 13.401 10.9512C13.1848 11.0553 12.9349 11.173 12.8457 11.2128C12.7564 11.2526 12.6258 11.3015 12.5555 11.3216C12.4851 11.3416 12.3659 11.363 12.2906 11.3691C12.2153 11.3752 12.0653 11.3706 11.9572 11.3589C11.8491 11.3472 11.6877 11.3245 11.5984 11.3084C11.5091 11.2923 11.3899 11.2581 11.3335 11.2324C11.2772 11.2068 10.9658 11.095 10.6416 10.984C10.3173 10.873 9.82142 10.7024 9.5395 10.6049C9.25758 10.5074 8.90822 10.3819 8.76314 10.3262C8.61804 10.2704 8.39507 10.1747 8.26764 10.1134C8.14019 10.0522 7.64939 9.83224 7.17699 9.6247C6.70458 9.41717 6.15762 9.17293 5.9615 9.08197C5.7654 8.991 5.46999 8.84858 5.30504 8.76551C5.14007 8.68243 4.99121 8.60334 4.97421 8.58974C4.9514 8.57148 4.94831 8.55953 4.96241 8.54402C4.9729 8.53248 5.03441 8.51464 5.0991 8.5044C5.16378 8.49417 5.38201 8.4523 5.58405 8.41136C5.7861 8.37043 6.22051 8.28334 6.54942 8.21783C6.87833 8.15234 7.43961 8.04497 7.79671 7.97924C8.15381 7.91349 8.66511 7.82255 8.93294 7.77713C9.20076 7.7317 9.66819 7.65661 9.97166 7.61024C10.2751 7.56389 10.5499 7.52597 10.5823 7.52597C10.6217 7.52597 10.6906 7.55669 10.7908 7.61894C10.8731 7.67008 11.002 7.73768 11.0772 7.76917C11.1524 7.80067 11.2868 7.84602 11.3758 7.86997C11.4648 7.89393 11.6147 7.92323 11.709 7.93511C11.8059 7.94731 11.9693 7.95214 12.0853 7.94622C12.1981 7.94046 12.3596 7.92243 12.4441 7.90612C12.5287 7.88984 12.671 7.851 12.7602 7.81983C12.8495 7.78866 12.9969 7.72188 13.0877 7.6714C13.1786 7.62092 13.305 7.53689 13.3687 7.48465C13.4324 7.43242 13.5221 7.34746 13.5681 7.29585C13.614 7.24426 13.6857 7.15079 13.7274 7.08813C13.7691 7.02549 13.8267 6.91799 13.8555 6.84924C13.8842 6.78049 13.9228 6.66099 13.9411 6.58368C13.9624 6.49383 13.975 6.37636 13.9759 6.25803C13.9767 6.15363 13.9657 6.01459 13.9507 5.93914C13.9361 5.86554 13.893 5.73346 13.855 5.64559C13.817 5.55772 13.7475 5.42974 13.7006 5.36118C13.6537 5.29264 13.5782 5.19891 13.5328 5.15291C13.4874 5.10689 13.4033 5.03185 13.346 4.98615C13.2887 4.94045 13.1738 4.8651 13.0907 4.81871C13.0076 4.77232 12.8628 4.70558 12.7688 4.67039C12.6748 4.6352 12.5249 4.59176 12.4356 4.57386C12.3219 4.55106 12.1889 4.54143 11.9914 4.54173C11.7594 4.54208 11.6716 4.55039 11.4959 4.58865C11.3784 4.61423 11.2246 4.65756 11.1541 4.68496C11.0837 4.71235 10.9514 4.77671 10.8602 4.82798C10.769 4.87926 10.633 4.97382 10.5579 5.03815C10.4828 5.10247 10.3781 5.21168 10.3252 5.28083C10.2723 5.34998 10.2031 5.45655 10.1715 5.51763C10.1398 5.57871 10.0897 5.69727 10.0602 5.7811C10.0099 5.92409 10.0027 5.93468 9.94389 5.95206C9.90943 5.96226 9.63518 6.00881 9.33446 6.05551C9.03375 6.10219 8.42249 6.20616 7.97611 6.28655C7.52974 6.36694 6.84544 6.4957 6.45545 6.57266C6.06545 6.64963 5.55031 6.75469 5.31067 6.80611C5.07104 6.85755 4.7212 6.93666 4.53325 6.98194C4.34531 7.02721 4.02622 7.1101 3.82418 7.16613C3.62213 7.22216 3.34534 7.30836 3.20908 7.35767C3.07281 7.407 2.90675 7.46568 2.84005 7.48808C2.71877 7.5288 2.71877 7.5288 2.60939 7.47954C2.54923 7.45246 2.44233 7.39641 2.37185 7.35499C2.30137 7.31356 2.17451 7.22942 2.08993 7.168C2.00536 7.10658 1.87849 7.01022 1.80801 6.95386C1.73753 6.89751 1.66177 6.83034 1.63964 6.80459C1.61752 6.77886 1.58099 6.7185 1.55848 6.67049C1.53596 6.62247 1.51755 6.55539 1.51755 6.52143C1.51755 6.48744 1.53825 6.41429 1.56356 6.35884C1.59264 6.29516 1.66657 6.1963 1.76432 6.09044C1.84944 5.99828 1.99596 5.86362 2.08995 5.79121C2.18392 5.7188 2.36845 5.58919 2.50002 5.50319C2.63156 5.41721 2.86561 5.27385 3.02012 5.18463C3.17463 5.09542 3.44758 4.94756 3.62668 4.85604C3.80578 4.76455 4.06381 4.63544 4.20007 4.56914C4.33634 4.50284 4.55547 4.39898 4.68703 4.33834C4.81859 4.2777 5.10692 4.15015 5.32776 4.05488C5.5486 3.9596 6.18677 3.69706 6.74591 3.4714C7.30506 3.24577 7.93169 2.99646 8.13843 2.91736C8.34517 2.83829 8.8065 2.66912 9.1636 2.54144C9.5207 2.41378 9.98587 2.25082 10.1973 2.17931C10.4088 2.10781 10.7163 2.00761 10.8808 1.95664C11.0452 1.90568 11.3006 1.83032 11.4482 1.7892C11.5959 1.74805 11.8035 1.69789 11.9096 1.67775C12.0156 1.65759 12.1332 1.63778 12.1708 1.63373C12.2084 1.62969 12.2968 1.6301 12.3673 1.63466C12.4377 1.63921 12.5829 1.66372 12.6898 1.68909ZM17.5755 10.7443C17.5898 10.7541 17.641 11.021 17.7149 11.4705C17.7791 11.8614 17.8604 12.3487 17.8955 12.5533C17.9306 12.758 17.9546 12.9461 17.9487 12.9714C17.9403 13.0079 17.9024 13.0357 17.766 13.1052C17.6714 13.1534 17.4848 13.2428 17.3513 13.3039C17.2179 13.365 16.9933 13.4653 16.8524 13.5266C16.7114 13.588 16.4269 13.7002 16.2202 13.7759C16.0134 13.8516 15.702 13.9585 15.5282 14.0135C15.3543 14.0685 15.0891 14.1468 14.9387 14.1876C14.7884 14.2283 14.5139 14.2951 14.3289 14.3361C14.1438 14.3771 13.8785 14.4314 13.7394 14.4568C13.6002 14.4822 13.3672 14.5197 13.2216 14.5402C13.0759 14.5607 12.6838 14.6089 12.3502 14.6473C11.7707 14.714 11.7173 14.7171 11.1541 14.7171C10.7807 14.7171 10.4958 14.7083 10.3767 14.6932C10.2733 14.68 10.0854 14.6528 9.95908 14.6328C9.83275 14.6127 9.63284 14.5751 9.51484 14.5493C9.39685 14.5234 9.19265 14.4731 9.06109 14.4375C8.92952 14.4019 8.71424 14.3394 8.58267 14.2987C8.45111 14.258 8.19738 14.1742 8.01883 14.1126C7.84028 14.0509 7.52119 13.9341 7.30975 13.8529C7.09831 13.7718 6.71105 13.6126 6.44919 13.4993C6.13493 13.3633 5.96533 13.2804 5.95031 13.2555C5.93083 13.2232 5.93961 13.1314 6.0115 12.6162C6.05766 12.2854 6.12228 11.8029 6.15509 11.5441C6.19514 11.2282 6.22294 11.0647 6.23972 11.0465C6.26162 11.0228 6.2832 11.0275 6.4156 11.0847C6.49861 11.1205 6.59726 11.1604 6.63485 11.1732C6.67244 11.1861 6.78777 11.2358 6.89114 11.2837C6.99451 11.3316 7.1406 11.4042 7.21578 11.4449C7.29096 11.4857 7.47165 11.5671 7.6173 11.6258C7.76296 11.6845 8.03207 11.7948 8.21532 11.8709C8.39857 11.9471 8.69074 12.0676 8.86459 12.1388C9.03845 12.2101 9.33831 12.3263 9.53095 12.3971C9.7236 12.4679 10.0504 12.5788 10.2571 12.6436C10.4639 12.7083 10.7625 12.7914 10.9207 12.8283C11.079 12.8651 11.3058 12.9111 11.4248 12.9306C11.5438 12.95 11.7372 12.9758 11.8547 12.9879C11.9822 13.001 12.1681 13.0053 12.316 12.9984C12.4745 12.9911 12.6378 12.9704 12.7693 12.9411C12.8824 12.9159 13.0668 12.8609 13.179 12.819C13.2913 12.7771 13.6178 12.6299 13.9046 12.492C14.1915 12.3541 14.7106 12.0998 15.0583 11.9268C15.406 11.7539 15.9673 11.4746 16.3056 11.3063C16.6439 11.1379 17.0553 10.9391 17.2197 10.8646C17.3842 10.79 17.5264 10.7289 17.5358 10.7289C17.5452 10.7288 17.5631 10.7357 17.5755 10.7443ZM2.83807 14.9221C2.88529 14.9396 2.95893 14.9911 3.01243 15.0441C3.06764 15.0988 3.12424 15.1783 3.15257 15.241C3.19243 15.3293 3.20014 15.3702 3.20031 15.4948C3.2005 15.6255 3.19382 15.6581 3.14437 15.7669C3.10967 15.8433 3.05841 15.919 3.01019 15.9649C2.96729 16.0059 2.8904 16.0563 2.83933 16.077C2.78134 16.1005 2.70524 16.1146 2.63669 16.1146C2.56599 16.1146 2.49175 16.1004 2.42815 16.0746C2.35871 16.0464 2.30101 16.0038 2.2338 15.931C2.16568 15.8572 2.12711 15.7956 2.09959 15.7165C2.06827 15.6266 2.06232 15.579 2.06816 15.4654C2.07317 15.3683 2.08783 15.2974 2.11594 15.2346C2.13823 15.1846 2.18883 15.1088 2.22836 15.0659C2.2679 15.0231 2.33162 14.9707 2.36996 14.9495C2.4083 14.9283 2.46861 14.9031 2.504 14.8935C2.5394 14.8839 2.61063 14.8795 2.66232 14.8839C2.714 14.8882 2.79308 14.9054 2.83807 14.9221Z" fill="white"/>
</svg>
