<svg width="24" height="23" viewBox="0 0 24 23" fill="none" xmlns="http://www.w3.org/2000/svg">
<path fill-rule="evenodd" clip-rule="evenodd" d="M0.523966 0.0284444C0.426329 0.0557477 0.268473 0.159524 0.173174 0.258915C0.0251985 0.41338 0 0.485351 0 0.753589C0 1.02136 0.0253155 1.09386 0.172063 1.24709C0.266719 1.34584 0.43773 1.45266 0.552088 1.48446C0.666446 1.51621 1.31588 1.54234 1.9953 1.54252C2.91344 1.54281 3.24529 1.56164 3.28809 1.61595C3.31978 1.65618 4.29644 5.18292 5.45844 9.45328C6.62049 13.7236 7.57125 17.2663 7.57125 17.3259C7.57125 17.3967 7.45637 17.4991 7.24017 17.6211C7.0581 17.7239 6.78788 17.9324 6.63973 18.0846C6.49152 18.2367 6.28613 18.519 6.18329 18.712C6.08051 18.9049 5.95603 19.2174 5.90681 19.4065C5.85758 19.5955 5.8173 19.9096 5.8173 20.1045C5.8173 20.2995 5.86611 20.6349 5.92575 20.8501C5.98544 21.0653 6.12354 21.3898 6.23269 21.5713C6.34185 21.7528 6.57296 22.0314 6.74631 22.1905C6.9196 22.3496 7.18269 22.5404 7.33096 22.6147C7.47917 22.6889 7.74098 22.7956 7.91269 22.8518C8.15141 22.93 8.36457 22.9488 8.8189 22.9319C9.35936 22.9118 9.45401 22.8903 9.86865 22.6933C10.1568 22.5563 10.4499 22.357 10.6656 22.1512C10.8533 21.9722 11.0866 21.6755 11.184 21.4919C11.2814 21.3082 11.4062 21.0017 11.4614 20.8107C11.5366 20.5502 11.5543 20.3309 11.5323 19.9337C11.5135 19.5959 11.4579 19.2876 11.3787 19.0825C11.3105 18.9056 11.2546 18.7412 11.2546 18.717C11.2546 18.6929 12.5205 18.6732 14.0677 18.6732C16.8809 18.6732 16.8809 18.6732 16.8495 18.8047C16.8323 18.8771 16.7736 19.0941 16.7192 19.2871C16.6479 19.54 16.6292 19.7602 16.6521 20.0764C16.6696 20.3175 16.7261 20.6527 16.7776 20.821C16.8291 20.9894 16.9836 21.292 17.1208 21.4934C17.262 21.7005 17.5258 21.9776 17.7283 22.1314C17.9252 22.281 18.2395 22.4622 18.4269 22.5342C18.6346 22.6142 18.9517 22.676 19.2404 22.6931C19.5006 22.7084 19.8511 22.6915 20.0193 22.6554C20.1875 22.6193 20.4691 22.5217 20.645 22.4385C20.821 22.3552 21.121 22.1426 21.3117 21.9661C21.5024 21.7895 21.7358 21.5091 21.8302 21.343C21.9247 21.1769 22.0467 20.8861 22.1013 20.6968C22.1559 20.5074 22.2006 20.1625 22.2006 19.9302C22.2006 19.6979 22.1561 19.353 22.1017 19.1636C22.0474 18.9743 21.9353 18.7026 21.8526 18.56C21.7698 18.4173 21.5943 18.183 21.4625 18.0392C21.3307 17.8955 21.0914 17.6945 20.9306 17.5925C20.7698 17.4906 20.5199 17.3566 20.3752 17.2948C20.1235 17.1872 19.8724 17.181 14.6216 17.1531C9.13123 17.1239 9.13123 17.1239 9.02382 16.7438C8.96472 16.5348 8.91631 16.3017 8.91619 16.2259C8.91596 16.088 8.91596 16.088 14.8155 16.109C20.7151 16.13 20.7151 16.13 20.9398 15.95C21.0633 15.851 21.2348 15.6405 21.3208 15.4823C21.4143 15.3103 21.6887 14.4062 22.0027 13.2359C22.2917 12.1587 22.8593 10.0403 23.2641 8.52842C23.6689 7.01645 24 5.69829 24 5.59913C24 5.49998 23.9407 5.33089 23.8683 5.22338C23.7958 5.11586 23.6538 4.97958 23.5527 4.92059C23.3775 4.81821 22.9636 4.81155 14.5924 4.77623C8.38953 4.7501 5.80122 4.72063 5.76649 4.67579C5.73942 4.64089 5.4734 3.70462 5.17523 2.59525C4.87712 1.48587 4.5835 0.495465 4.52276 0.394379C4.46201 0.293351 4.32719 0.171567 4.22318 0.123801C4.0755 0.0560401 3.66911 0.0306662 2.36784 0.0078647C1.4514 -0.00815479 0.621661 0.00108268 0.523966 0.0284444ZM22.1997 6.38836C22.2225 6.40888 21.8335 7.95143 21.3352 9.81618C20.8369 11.681 20.3646 13.4435 20.2855 13.7329C20.2065 14.0223 20.0928 14.3248 20.033 14.4052C19.924 14.5514 19.924 14.5514 14.4054 14.5667C10.5193 14.5774 8.84089 14.563 8.73173 14.5181C8.64649 14.483 8.52038 14.3943 8.45145 14.321C8.35785 14.2214 8.06008 13.2084 7.27326 10.3127C6.6941 8.18155 6.23298 6.40467 6.24854 6.36409C6.27116 6.30516 7.86171 6.29651 14.2176 6.32071C18.585 6.33737 22.177 6.36784 22.1997 6.38836Z" fill="white"/>
</svg>
