<svg width="24" height="20" viewBox="0 0 24 20" fill="none" xmlns="http://www.w3.org/2000/svg">
<path fill-rule="evenodd" clip-rule="evenodd" d="M9.77284 0.0103364C9.65933 0.0173705 8.83898 0.0295125 7.94984 0.0373033C6.33321 0.0514573 6.33321 0.0514572 6.21282 0.0909614C6.14661 0.112683 6.046 0.153855 5.98925 0.182438C5.93249 0.211022 5.83962 0.265712 5.78287 0.30396C5.72612 0.342209 5.57642 0.474652 5.45021 0.598272C5.24477 0.799491 5.19504 0.860871 4.97549 1.1842C4.84062 1.38283 4.65971 1.64597 4.57348 1.76893C4.48726 1.8919 4.31871 2.14678 4.1989 2.33532C4.07912 2.52386 3.90194 2.82569 3.80519 3.00605C3.70845 3.1864 3.6039 3.37653 3.57287 3.42855C3.54185 3.48058 3.42184 3.71662 3.30618 3.9531C3.19054 4.18957 2.8774 4.82805 2.61031 5.37195C2.34324 5.91584 2.0955 6.41114 2.0598 6.47263C2.02408 6.53411 1.9698 6.63472 1.93915 6.6962C1.9085 6.75769 1.85746 6.85056 1.82573 6.90258C1.794 6.95461 1.66044 7.22548 1.52894 7.50452C1.39743 7.78356 1.24154 8.13956 1.18252 8.29563C1.1235 8.4517 1.02261 8.73805 0.958307 8.93196C0.894021 9.12587 0.809939 9.40061 0.771484 9.5425C0.733046 9.68438 0.682036 9.89138 0.658148 10.0025C0.63426 10.1136 0.599468 10.2994 0.580825 10.4153C0.562182 10.5311 0.535009 10.7409 0.52046 10.8813C0.50591 11.0217 0.486872 11.3119 0.478187 11.5262C0.468693 11.7602 0.468504 12.2421 0.477722 12.7328C0.486149 13.1821 0.508851 13.8167 0.528182 14.143C0.547495 14.4693 0.575098 14.8524 0.589527 14.9943C0.603957 15.1362 0.626985 15.4496 0.640709 15.6908C0.654433 15.932 0.673901 16.2599 0.683962 16.4194C0.694041 16.5789 0.713629 16.8034 0.727491 16.9182C0.741353 17.033 0.763727 17.2275 0.777194 17.3505C0.79066 17.4734 0.809526 17.6089 0.819088 17.6514C0.828668 17.694 0.848566 17.8101 0.863322 17.9094C0.878078 18.0087 0.913541 18.2082 0.942107 18.3528C0.97069 18.4973 1.0141 18.6792 1.03857 18.7569C1.06304 18.8347 1.10527 18.9474 1.13239 19.0074C1.15953 19.0675 1.21576 19.1643 1.2574 19.2226C1.29904 19.281 1.36953 19.3623 1.41406 19.4033C1.45858 19.4444 1.54306 19.4998 1.60178 19.5264C1.66047 19.553 1.75071 19.5838 1.80231 19.5947C1.8662 19.6083 2.37016 19.6189 3.38373 19.628C4.30441 19.6363 4.90716 19.6352 4.96527 19.6252C5.01692 19.6162 5.09431 19.5911 5.13725 19.5693C5.18019 19.5475 5.2525 19.4968 5.2979 19.4568C5.34631 19.4141 5.4025 19.3404 5.43368 19.2787C5.46295 19.2208 5.5173 19.0883 5.55446 18.9843C5.6037 18.8464 5.63313 18.7204 5.66291 18.5199C5.68539 18.3686 5.71516 18.1364 5.72904 18.004C5.74294 17.8716 5.76247 17.6471 5.77246 17.5052C5.78246 17.3634 5.79945 17.1198 5.8102 16.9641C5.82096 16.8084 5.83347 16.6713 5.83801 16.6595C5.84253 16.6477 5.86294 16.6326 5.88334 16.6259C5.90376 16.6192 8.64464 16.6137 11.9742 16.6136C15.3038 16.6136 18.0447 16.6191 18.0651 16.6258C18.0855 16.6325 18.1069 16.6504 18.1127 16.6656C18.1185 16.6807 18.1311 16.7675 18.1406 16.8584C18.1502 16.9493 18.1581 17.0817 18.1583 17.1527C18.1585 17.2236 18.1701 17.4132 18.184 17.574C18.198 17.7348 18.2247 17.998 18.2435 18.1588C18.2622 18.3196 18.2859 18.5053 18.2961 18.5715C18.3063 18.6377 18.3258 18.7383 18.3395 18.7951C18.3531 18.8519 18.4 18.9901 18.4437 19.1023C18.4874 19.2145 18.5471 19.3378 18.5765 19.3763C18.6059 19.4148 18.6784 19.4794 18.7376 19.5199C18.7968 19.5605 18.8781 19.603 18.9182 19.6145C18.9731 19.6302 19.3238 19.6344 20.3411 19.6313C21.0836 19.6291 21.8082 19.6203 21.9513 19.6116C22.1034 19.6024 22.2462 19.5843 22.2952 19.568C22.3414 19.5526 22.4119 19.5212 22.452 19.4981C22.492 19.475 22.5622 19.4187 22.6079 19.3729C22.654 19.3268 22.7221 19.2295 22.7608 19.1543C22.7991 19.0797 22.8546 18.9452 22.8839 18.8553C22.9133 18.7654 22.9563 18.6107 22.9795 18.5113C23.0027 18.412 23.0528 18.1489 23.091 17.9266C23.1292 17.7043 23.1795 17.3715 23.2028 17.1871C23.2261 17.0026 23.254 16.7472 23.2649 16.6195C23.2757 16.4918 23.295 16.3487 23.3078 16.3014C23.3205 16.2541 23.3398 16.0412 23.3505 15.8284C23.3613 15.6156 23.3851 15.2828 23.4034 15.0889C23.4217 14.895 23.4525 14.4693 23.4718 14.143C23.4911 13.8167 23.5139 13.1821 23.5223 12.7328C23.5315 12.2421 23.5313 11.7602 23.5218 11.5262C23.5131 11.3119 23.4941 11.0217 23.4795 10.8813C23.465 10.7409 23.4378 10.5311 23.4192 10.4153C23.4005 10.2994 23.3657 10.1136 23.3419 10.0025C23.318 9.89138 23.2669 9.68438 23.2285 9.5425C23.19 9.40061 23.1097 9.13748 23.0501 8.95776C22.9904 8.77804 22.9013 8.52265 22.852 8.39022C22.8027 8.25779 22.7329 8.07979 22.6968 7.99466C22.6607 7.90953 22.5347 7.63729 22.4169 7.38967C22.299 7.14205 22.1872 6.91761 22.1683 6.89092C22.1494 6.86423 22.1011 6.7766 22.0608 6.6962C22.0206 6.6158 21.9662 6.51875 21.9399 6.48054C21.9137 6.44232 21.836 6.31076 21.7672 6.18817C21.6984 6.06558 21.5208 5.7215 21.3726 5.42354C21.2243 5.12558 20.9532 4.5761 20.77 4.20247C20.5869 3.82884 20.403 3.4651 20.3613 3.39416C20.3197 3.32322 20.2178 3.13703 20.1349 2.9804C20.0521 2.82378 19.9451 2.63417 19.8973 2.55905C19.8494 2.48393 19.7695 2.35668 19.7198 2.27628C19.6702 2.19588 19.5277 1.98305 19.4034 1.80333C19.279 1.62361 19.0779 1.32952 18.9564 1.1498C18.7736 0.879325 18.7013 0.788965 18.5364 0.625256C18.4268 0.516478 18.287 0.389831 18.2256 0.343809C18.1642 0.297803 18.0475 0.226792 17.9664 0.186033C17.8852 0.145273 17.773 0.0985974 17.717 0.0823279C17.6253 0.055688 17.4545 0.0515776 15.9986 0.0409491C15.1094 0.0344482 14.3688 0.0232694 14.3527 0.016115C14.3366 0.00894334 13.346 0.00182333 12.1513 0.000292699C10.9567 -0.00122074 9.88635 0.00328517 9.77284 0.0103364ZM8.16481 1.72955C8.67087 1.72771 9.7408 1.73751 10.5425 1.75134C11.839 1.77371 12.162 1.77358 13.4661 1.74996C14.2725 1.73536 15.2573 1.7259 15.6546 1.72893C16.0519 1.73197 16.5008 1.73179 16.6521 1.72852C16.8677 1.72386 16.9515 1.72876 17.0391 1.7512C17.1005 1.76694 17.2067 1.8072 17.275 1.84065C17.3444 1.87465 17.4483 1.94656 17.5107 2.00371C17.5721 2.05994 17.6783 2.18078 17.7467 2.27224C17.8152 2.36371 17.9422 2.54328 18.0289 2.67127C18.1157 2.79927 18.2428 3.00075 18.3114 3.11899C18.38 3.23723 18.5522 3.55453 18.694 3.82411C18.8358 4.09369 19.0255 4.45279 19.1155 4.62209C19.2056 4.7914 19.4353 5.19771 19.6261 5.52499C19.8169 5.85229 19.9784 6.1341 19.9849 6.15125C19.9915 6.16841 19.9859 6.20323 19.9725 6.22864C19.9591 6.25406 19.907 6.31497 19.8566 6.36402C19.8062 6.41307 19.699 6.4944 19.6185 6.54476C19.5379 6.59511 19.4257 6.6509 19.3691 6.66872C19.3125 6.68654 19.2314 6.71464 19.1888 6.73117C19.1463 6.74769 19.0689 6.7712 19.0168 6.78341C18.9406 6.80132 17.5909 6.80639 12.043 6.80962C5.9608 6.81318 5.14779 6.81062 5.02615 6.78761C4.95048 6.77328 4.85374 6.74797 4.81117 6.73134C4.76861 6.71473 4.68749 6.68654 4.63092 6.66872C4.57434 6.6509 4.46212 6.59511 4.38155 6.54476C4.30096 6.4944 4.19381 6.41307 4.14342 6.36402C4.09303 6.31497 4.04085 6.25406 4.02745 6.22864C4.01406 6.20323 4.00849 6.16841 4.01506 6.15125C4.02162 6.1341 4.1831 5.85229 4.37389 5.52499C4.56467 5.19771 4.79442 4.7914 4.88446 4.62209C4.97447 4.45279 5.16417 4.09369 5.306 3.82411C5.44782 3.55453 5.61997 3.23723 5.68857 3.11899C5.75718 3.00075 5.88429 2.79927 5.97107 2.67127C6.05783 2.54328 6.1845 2.36418 6.2525 2.27329C6.32052 2.18239 6.42216 2.06545 6.47838 2.0134C6.53458 1.96136 6.62166 1.89539 6.67188 1.86679C6.72208 1.83819 6.81245 1.79827 6.87272 1.77808C6.93296 1.75791 7.02583 1.73507 7.07909 1.72737C7.13234 1.71964 7.1914 1.71773 7.21032 1.72312C7.22923 1.7285 7.65876 1.73141 8.16481 1.72955ZM2.05947 3.79212C1.96961 3.80065 1.80322 3.82262 1.68971 3.84095C1.5762 3.85927 1.41368 3.89399 1.32855 3.91812C1.24342 3.94223 1.08716 4.00452 0.981301 4.05653C0.822837 4.1344 0.76285 4.17571 0.641621 4.29047C0.560652 4.36713 0.455863 4.48744 0.408775 4.55785C0.361669 4.62826 0.296763 4.74156 0.264517 4.80963C0.23227 4.8777 0.181622 5.00225 0.151972 5.08642C0.122305 5.17061 0.0793443 5.33313 0.0564708 5.44758C0.0336144 5.56205 0.00972623 5.7179 0.00339731 5.7939C-0.00320677 5.87334 6.08503e-05 5.98468 0.0110849 6.05578C0.0216445 6.12381 0.0462207 6.2221 0.0657234 6.27421C0.0852089 6.32631 0.132779 6.41629 0.171423 6.47416C0.210067 6.53201 0.292051 6.62091 0.353638 6.6717C0.415207 6.72248 0.524312 6.79447 0.596097 6.83167C0.667882 6.86887 0.794409 6.91988 0.877287 6.94504C0.960165 6.97019 1.04249 6.98616 1.06026 6.98052C1.07832 6.97478 1.11701 6.91935 1.14802 6.85474C1.17853 6.79119 1.51298 6.08546 1.89126 5.28644C2.40531 4.2006 2.57485 3.82704 2.5625 3.8074C2.54976 3.78715 2.50888 3.7806 2.38441 3.77886C2.29555 3.77763 2.14933 3.78359 2.05947 3.79212ZM21.4452 3.79316C21.4339 3.80451 21.4246 3.81998 21.4246 3.82753C21.4246 3.8351 21.7333 4.49331 22.1106 5.29024C22.4878 6.08716 22.8215 6.79119 22.852 6.85474C22.883 6.91935 22.9217 6.97478 22.9397 6.98052C22.9575 6.98616 23.0398 6.97019 23.1227 6.94504C23.2056 6.91988 23.3321 6.86887 23.4039 6.83167C23.4757 6.79447 23.5848 6.72248 23.6464 6.6717C23.708 6.62091 23.7899 6.53201 23.8286 6.47416C23.8672 6.41629 23.9148 6.32631 23.9343 6.27421C23.9538 6.2221 23.9784 6.12381 23.9889 6.05578C23.9999 5.98468 24.0032 5.87334 23.9966 5.7939C23.9903 5.7179 23.9664 5.56205 23.9435 5.44758C23.9207 5.33313 23.8777 5.17061 23.848 5.08642C23.8184 5.00225 23.7677 4.8777 23.7355 4.80963C23.7032 4.74156 23.6383 4.62826 23.5912 4.55785C23.5441 4.48744 23.4394 4.36713 23.3584 4.29047C23.2372 4.17571 23.1772 4.1344 23.0187 4.05653C22.9128 4.00452 22.7566 3.94223 22.6715 3.91812C22.5863 3.89399 22.4238 3.85944 22.3103 3.84133C22.1968 3.82322 22.0149 3.80036 21.9061 3.79052C21.7974 3.78069 21.6538 3.7726 21.5871 3.77257C21.5157 3.77253 21.4574 3.781 21.4452 3.79316ZM20.861 7.74099C20.8755 7.75753 20.9048 7.80591 20.926 7.84848C20.9473 7.89104 20.999 7.97736 21.041 8.04027C21.083 8.1032 21.1666 8.27059 21.2269 8.41223C21.2871 8.55388 21.3866 8.80447 21.448 8.96909C21.5093 9.13371 21.5956 9.38424 21.6397 9.52583C21.6838 9.66742 21.7505 9.90269 21.7879 10.0486C21.8253 10.1946 21.8747 10.4229 21.8978 10.556C21.9209 10.6891 21.9535 10.9179 21.9702 11.0645C21.9962 11.2916 22.0005 11.4788 21.9992 12.3286C21.998 13.1359 21.9906 13.4474 21.9601 13.9624C21.9394 14.3124 21.9145 14.6839 21.9047 14.7879C21.895 14.892 21.8831 14.9906 21.8782 15.0072C21.8734 15.0237 21.8487 15.043 21.8233 15.05C21.7979 15.0571 17.3774 15.0629 12 15.0629C6.62257 15.0629 2.20208 15.0571 2.17671 15.05C2.15133 15.043 2.12661 15.0237 2.12178 15.0072C2.11695 14.9906 2.10503 14.892 2.09528 14.7879C2.08554 14.6839 2.06062 14.3124 2.03992 13.9624C2.00944 13.4474 2.00198 13.1359 2.00077 12.3286C1.9995 11.4788 2.00378 11.2916 2.02975 11.0645C2.04652 10.9179 2.07911 10.6891 2.10217 10.556C2.12525 10.4229 2.17472 10.1946 2.2121 10.0486C2.24949 9.90269 2.31617 9.66742 2.36028 9.52583C2.4044 9.38424 2.4907 9.13371 2.55204 8.96909C2.61341 8.80447 2.71329 8.55297 2.774 8.41019C2.83473 8.26741 2.91121 8.11163 2.94399 8.06402C2.97677 8.01642 3.03314 7.92329 3.06928 7.85708C3.11673 7.77014 3.14581 7.73514 3.17396 7.73112C3.19831 7.72763 3.26343 7.75793 3.34753 7.81188C3.42155 7.85937 3.60895 7.96407 3.764 8.04457C3.91904 8.12508 4.0807 8.20329 4.12327 8.21841C4.16581 8.23351 4.25868 8.26192 4.32963 8.28153C4.40057 8.30115 4.48957 8.32513 4.5274 8.33483C4.57062 8.3459 5.26763 8.35715 6.402 8.36506C7.3952 8.37201 9.90269 8.37772 11.9742 8.37775C14.0457 8.37779 16.5532 8.37211 17.5464 8.36511C18.705 8.35694 19.3769 8.34595 19.421 8.33441C19.4588 8.32452 19.5517 8.30041 19.6274 8.28082C19.7031 8.26125 19.8118 8.22617 19.869 8.20288C19.9262 8.17961 20.0926 8.10299 20.2388 8.03264C20.3849 7.9623 20.5703 7.86126 20.6507 7.80813C20.7311 7.75499 20.8053 7.71138 20.8157 7.7112C20.826 7.71103 20.8464 7.72445 20.861 7.74099ZM4.94066 8.98442C4.88418 8.99324 4.76422 9.01957 4.67409 9.04292C4.58395 9.06626 4.4603 9.10572 4.3993 9.13058C4.33828 9.15545 4.22993 9.20528 4.15852 9.24131C4.0871 9.27734 3.95966 9.35597 3.87534 9.41606C3.79101 9.47615 3.65558 9.59173 3.57437 9.67295C3.49316 9.75415 3.37755 9.88959 3.31748 9.97391C3.25739 10.0582 3.17415 10.1949 3.13251 10.2775C3.09088 10.3602 3.03744 10.4793 3.01378 10.5421C2.99011 10.605 2.94978 10.7386 2.92418 10.839C2.88096 11.0084 2.87755 11.0476 2.87698 11.3827C2.87642 11.7244 2.87905 11.7544 2.92567 11.9394C2.95278 12.0469 3.00408 12.2065 3.03968 12.294C3.07528 12.3815 3.13733 12.5102 3.17757 12.58C3.2178 12.6498 3.29103 12.7611 3.34027 12.8273C3.38952 12.8936 3.47103 12.9928 3.52138 13.0478C3.57176 13.1029 3.66781 13.1927 3.73485 13.2475C3.80188 13.3023 3.90702 13.3798 3.9685 13.4197C4.02997 13.4597 4.14991 13.5256 4.23504 13.5662C4.32017 13.6068 4.45173 13.6601 4.5274 13.6848C4.60308 13.7094 4.72303 13.7416 4.79398 13.7564C4.86492 13.7712 5.00381 13.7911 5.10263 13.8005C5.22152 13.8118 5.34402 13.8118 5.46482 13.8005C5.56521 13.7912 5.7088 13.7708 5.7839 13.7553C5.85901 13.7398 5.9785 13.7075 6.04944 13.6835C6.12038 13.6595 6.24378 13.6097 6.32365 13.5728C6.40352 13.536 6.54669 13.4541 6.64181 13.3909C6.75009 13.319 6.88252 13.2082 6.99601 13.0947C7.10333 12.9873 7.22141 12.8471 7.28551 12.751C7.34503 12.6617 7.41929 12.5379 7.45054 12.4758C7.48177 12.4138 7.53177 12.2937 7.56162 12.2091C7.59148 12.1245 7.63267 11.9852 7.65317 11.8995C7.68478 11.7675 7.69054 11.6916 7.69114 11.3999C7.69176 11.1035 7.68648 11.0319 7.65295 10.8824C7.63155 10.7869 7.59034 10.6437 7.5614 10.5642C7.53245 10.4847 7.46978 10.3449 7.42215 10.2537C7.37451 10.1624 7.28693 10.0231 7.22757 9.94413C7.16818 9.86512 7.04327 9.72665 6.94999 9.63643C6.85669 9.54621 6.71143 9.42711 6.6272 9.37179C6.54294 9.31646 6.40364 9.23814 6.31763 9.19774C6.2316 9.15734 6.12549 9.11241 6.08181 9.09789C6.03812 9.08337 5.92591 9.05096 5.83243 9.02586C5.68474 8.98622 5.62195 8.97946 5.35292 8.9743C5.18265 8.97104 4.99714 8.97558 4.94066 8.98442ZM18.2859 8.99111C18.2103 9.00397 18.0826 9.03405 18.0022 9.05794C17.9218 9.08183 17.7941 9.12754 17.7184 9.15951C17.6427 9.19148 17.5266 9.24935 17.4603 9.2881C17.394 9.32685 17.2895 9.39543 17.2281 9.44049C17.1667 9.48555 17.0632 9.57338 16.9982 9.63566C16.9331 9.69792 16.8398 9.79918 16.7908 9.86066C16.7418 9.92215 16.6767 10.0091 16.6461 10.0539C16.6156 10.0987 16.5529 10.2109 16.5068 10.3033C16.4608 10.3956 16.399 10.5447 16.3695 10.6346C16.3401 10.7244 16.303 10.8676 16.2873 10.9527C16.2678 11.0574 16.2586 11.1993 16.2586 11.3913C16.2586 11.5478 16.2684 11.7252 16.2803 11.7869C16.2921 11.8483 16.3253 11.9797 16.3539 12.0788C16.3826 12.178 16.4433 12.3366 16.4889 12.4314C16.5345 12.5262 16.613 12.6657 16.6635 12.7414C16.7139 12.817 16.8481 12.9729 16.9616 13.0878C17.0964 13.2241 17.2188 13.3294 17.3142 13.391C17.3946 13.4429 17.525 13.5177 17.604 13.5572C17.683 13.5968 17.8261 13.6551 17.9222 13.6869C18.0182 13.7187 18.1741 13.7581 18.2687 13.7744C18.3742 13.7927 18.5305 13.8042 18.6729 13.8042C18.817 13.8042 18.9703 13.7928 19.077 13.7741C19.1716 13.7576 19.3225 13.7206 19.4124 13.692C19.5023 13.6634 19.6454 13.6067 19.7306 13.566C19.8157 13.5252 19.9395 13.4555 20.0057 13.4109C20.072 13.3664 20.1857 13.2799 20.2585 13.2187C20.3313 13.1574 20.4294 13.063 20.4765 13.0088C20.5236 12.9547 20.604 12.8521 20.6551 12.7808C20.7063 12.7095 20.7834 12.5825 20.8266 12.4985C20.8698 12.4145 20.9291 12.2776 20.9584 12.1942C20.9877 12.1109 21.0286 11.9639 21.0493 11.8675C21.08 11.7249 21.087 11.6362 21.087 11.3913C21.087 11.1464 21.08 11.0577 21.0493 10.9151C21.0286 10.8187 20.9875 10.6717 20.9581 10.5884C20.9287 10.505 20.8736 10.3749 20.8357 10.2992C20.7977 10.2235 20.7194 10.092 20.6616 10.0068C20.6038 9.92172 20.4751 9.77075 20.3757 9.67138C20.2722 9.56797 20.1308 9.4483 20.0449 9.3916C19.9624 9.33712 19.8269 9.25809 19.7439 9.21599C19.6609 9.17391 19.5233 9.11655 19.4382 9.08855C19.3531 9.06054 19.2254 9.02481 19.1544 9.00913C19.0713 8.99076 18.9185 8.97835 18.7245 8.97418C18.5213 8.96982 18.3788 8.97532 18.2859 8.99111ZM5.4975 10.5579C5.55811 10.5721 5.65454 10.6088 5.71181 10.6393C5.76908 10.6698 5.85949 10.7351 5.91272 10.7843C5.96593 10.8336 6.03321 10.9187 6.06222 10.9735C6.09122 11.0283 6.1273 11.1152 6.1424 11.1666C6.1576 11.2184 6.16983 11.3223 6.16983 11.3999C6.16983 11.4785 6.15767 11.5808 6.1421 11.6332C6.12687 11.6846 6.09491 11.7651 6.07111 11.8121C6.04731 11.8592 5.98199 11.9454 5.92598 12.0037C5.86996 12.062 5.77938 12.1336 5.72471 12.1627C5.67002 12.1919 5.57979 12.2276 5.52418 12.2421C5.46857 12.2566 5.3686 12.2682 5.30201 12.268C5.23542 12.2677 5.14633 12.2596 5.10402 12.2498C5.06172 12.2401 4.97659 12.2081 4.91484 12.1787C4.84067 12.1434 4.76421 12.0868 4.68953 12.012C4.62461 11.9469 4.55711 11.8584 4.53096 11.8041C4.50594 11.752 4.47361 11.6633 4.45913 11.607C4.44466 11.5506 4.433 11.4538 4.43323 11.392C4.43347 11.3301 4.44167 11.2447 4.45148 11.2021C4.46128 11.1596 4.49385 11.0749 4.52386 11.0139C4.55387 10.9529 4.62009 10.8581 4.67099 10.8031C4.73834 10.7303 4.80172 10.6842 4.90346 10.634C4.9804 10.5961 5.07818 10.5583 5.12074 10.5501C5.16331 10.5419 5.2407 10.5344 5.29272 10.5335C5.34475 10.5326 5.43689 10.5436 5.4975 10.5579ZM18.864 10.5485C18.915 10.5579 19.0196 10.5965 19.0965 10.6343C19.1986 10.6845 19.2614 10.7301 19.329 10.8031C19.3799 10.8581 19.4461 10.9529 19.4761 11.0139C19.5062 11.0749 19.5387 11.1596 19.5485 11.2021C19.5583 11.2447 19.5665 11.3301 19.5668 11.392C19.567 11.4538 19.5553 11.5506 19.5409 11.607C19.5264 11.6633 19.4941 11.752 19.469 11.8041C19.4429 11.8584 19.3754 11.9469 19.3105 12.012C19.2358 12.0868 19.1593 12.1434 19.0852 12.1787C19.0234 12.2081 18.9383 12.2401 18.896 12.2498C18.8537 12.2596 18.7646 12.2677 18.698 12.268C18.6314 12.2682 18.5326 12.2569 18.4784 12.2427C18.4243 12.2286 18.3397 12.1967 18.2904 12.1718C18.2412 12.1468 18.1532 12.0806 18.0949 12.0246C18.0366 11.9685 17.9655 11.8786 17.9369 11.8247C17.9084 11.7708 17.8727 11.6846 17.8576 11.6332C17.8424 11.5814 17.8302 11.4775 17.8302 11.3999C17.8302 11.3223 17.8424 11.2184 17.8576 11.1666C17.8727 11.1152 17.9088 11.0283 17.9378 10.9735C17.9668 10.9187 18.0341 10.8336 18.0873 10.7843C18.1405 10.7351 18.2312 10.6696 18.2889 10.6389C18.3465 10.6082 18.4391 10.5721 18.4946 10.5587C18.5501 10.5453 18.6351 10.5336 18.6834 10.5328C18.7318 10.532 18.8131 10.5391 18.864 10.5485Z" fill="white"/>
</svg>
