<svg width="24" height="24" viewBox="0 0 24 24" fill="none" xmlns="http://www.w3.org/2000/svg">
<path fill-rule="evenodd" clip-rule="evenodd" d="M12.9711 0.298627C12.6305 0.462386 12.0991 0.764608 11.7902 0.970296C11.4812 1.17592 11.0399 1.51884 10.8094 1.73225C10.5789 1.94566 10.2432 2.3131 10.0634 2.54875C9.88368 2.78439 9.62982 3.17619 9.49931 3.41944C9.36887 3.66269 9.1692 4.14035 9.05562 4.4809C8.9421 4.82146 8.82304 5.27258 8.79108 5.48339C8.75835 5.69946 8.72486 7.77615 8.71436 10.2429C8.69756 14.1874 8.70499 14.6284 8.78984 14.7135C8.8438 14.7675 9.07054 14.8339 9.32058 14.8688C9.5607 14.9023 9.9798 14.9471 10.2519 14.9684C10.7466 15.0071 10.7466 15.0071 10.7347 19.2639C10.7228 23.5208 10.7228 23.5208 10.8494 23.6475C10.9724 23.7704 11.0127 23.7736 12.2269 23.7544C13.3199 23.7371 13.4986 23.721 13.6427 23.6265C13.7334 23.567 13.8621 23.3952 13.9286 23.2448C14.0464 22.9787 14.0493 22.8846 14.0368 19.7558C14.0298 17.9873 14.0141 12.8996 14.002 8.44977C13.9822 1.22192 13.9699 0.340082 13.8867 0.179212C13.8355 0.0802013 13.7479 -0.000469702 13.6919 2.05864e-06C13.636 0.000473819 13.3116 0.134867 12.9711 0.298627ZM18.3373 4.25039C18.1914 4.27869 17.8776 4.39764 17.6401 4.51469C17.3326 4.66625 17.077 4.85766 16.7529 5.17917C16.5025 5.42761 16.1698 5.83686 16.0135 6.08872C15.8572 6.34052 15.6495 6.75184 15.5518 7.00276C15.4542 7.25362 15.3249 7.69772 15.2644 7.98962C15.1917 8.34061 15.1543 8.76997 15.1538 9.25748C15.1534 9.6629 15.1909 10.2092 15.237 10.4714C15.2832 10.7337 15.3655 11.1014 15.4199 11.2885C15.4742 11.4756 15.5833 11.7746 15.6622 11.9529C15.741 12.1313 15.9098 12.4308 16.0373 12.6185C16.1647 12.8061 16.3944 13.0669 16.5477 13.1979C16.701 13.329 16.9673 13.5052 17.1396 13.5895C17.4528 13.7429 17.4528 13.7429 17.4528 18.431C17.4528 22.255 17.4676 23.1542 17.5331 23.309C17.5773 23.4134 17.6675 23.5469 17.7337 23.6058C17.8392 23.6998 18.0115 23.7171 19.1456 23.7473C20.3383 23.7792 20.4502 23.7734 20.6043 23.6725C20.6961 23.6123 20.8058 23.4803 20.8481 23.379C20.9078 23.236 20.9344 22.1429 20.9673 18.4695C21.0096 13.7439 21.0096 13.7439 21.3856 13.524C21.5924 13.403 21.8885 13.1698 22.0435 13.0056C22.1986 12.8415 22.4005 12.5791 22.4921 12.4225C22.5838 12.2658 22.7348 11.951 22.8277 11.7228C22.9205 11.4946 23.047 11.0522 23.1087 10.7398C23.1705 10.4272 23.2383 9.9551 23.2595 9.69056C23.2806 9.42602 23.2682 8.9391 23.2318 8.60851C23.1955 8.27793 23.1008 7.78352 23.0214 7.50978C22.9421 7.23604 22.7814 6.82072 22.6644 6.58684C22.5473 6.35291 22.3365 5.99938 22.1958 5.80113C22.0552 5.60293 21.7547 5.26892 21.5279 5.05899C21.3011 4.84905 20.9482 4.59542 20.7437 4.49535C20.5392 4.39534 20.2144 4.28483 20.0219 4.24974C19.8295 4.21471 19.4314 4.18894 19.1373 4.19254C18.8433 4.19608 18.4833 4.22214 18.3373 4.25039ZM0.447524 5.48799C0.36184 5.55534 0.264599 5.66119 0.231399 5.72323C0.198257 5.7852 0.132565 6.21439 0.0855066 6.67689C0.0384484 7.13945 0 7.8363 0 8.2255C0 8.61471 0.0258289 9.1189 0.0573779 9.34593C0.0889269 9.57297 0.157981 9.94448 0.210818 10.1715C0.263714 10.3986 0.382362 10.7454 0.474532 10.9422C0.566702 11.139 0.752694 11.4257 0.887795 11.5791C1.02284 11.7326 1.29245 11.9662 1.48687 12.0982C1.8404 12.3383 1.8404 12.3383 1.81828 17.9185C1.79741 23.2021 1.80189 23.5091 1.90226 23.6929C1.96058 23.7997 2.0751 23.9125 2.15671 23.9436C2.23833 23.9746 2.94444 24 3.72573 24C5.14632 24 5.14632 24 5.3687 23.7662C5.491 23.6377 5.60086 23.4718 5.61295 23.3977C5.62498 23.3236 5.62303 20.8052 5.6087 17.8014C5.58258 12.34 5.58258 12.34 5.93734 12.0991C6.13248 11.9666 6.39766 11.7383 6.52657 11.5918C6.65554 11.4453 6.84153 11.1587 6.94001 10.9549C7.03843 10.7511 7.16251 10.3986 7.2157 10.1715C7.26889 9.94448 7.33753 9.5597 7.36831 9.31645C7.39904 9.0732 7.42498 8.59554 7.42587 8.25499C7.42675 7.91444 7.40016 7.33063 7.36684 6.95765C7.33346 6.58466 7.2788 6.14109 7.24536 5.97196C7.20078 5.74664 7.13703 5.62457 7.00682 5.51494C6.89018 5.41682 6.75774 5.36545 6.62134 5.36545C6.46235 5.36545 6.36494 5.4141 6.20625 5.57279C6.0005 5.77854 5.9992 5.78302 6.034 6.17724C6.05328 6.3956 6.08654 7.11975 6.10788 7.78635C6.13377 8.59454 6.12446 9.12598 6.07999 9.38144C6.04325 9.59214 5.97391 9.89707 5.92579 10.0591C5.87767 10.2211 5.74203 10.4661 5.62427 10.6036C5.50657 10.7412 5.30796 10.9059 5.183 10.9696C5.05804 11.0334 4.90307 11.0856 4.83855 11.0856C4.77274 11.0856 4.64873 11.1806 4.55609 11.3021C4.39091 11.5186 4.39091 11.5186 4.36143 17.1254C4.33194 22.7321 4.33194 22.7321 3.71276 22.7321C3.09357 22.7321 3.09357 22.7321 3.06409 17.13C3.0346 11.5278 3.0346 11.5278 2.86542 11.3067C2.76971 11.1815 2.64516 11.0856 2.57858 11.0856C2.51384 11.0856 2.33233 11.0156 2.17523 10.9301C2.01813 10.8446 1.81858 10.6722 1.73183 10.547C1.64509 10.4218 1.5239 10.1402 1.46252 9.92113C1.40119 9.70205 1.32765 9.21768 1.29917 8.84469C1.27033 8.46746 1.26933 7.86561 1.29693 7.48838C1.32417 7.11539 1.36522 6.57918 1.38821 6.29683C1.42991 5.78343 1.42991 5.78343 1.22092 5.57444C1.06199 5.41552 0.962981 5.36545 0.807595 5.36545C0.690009 5.36545 0.537099 5.41747 0.447524 5.48799ZM2.42167 5.51665C2.32283 5.59986 2.21928 5.75242 2.19162 5.85573C2.16397 5.95905 2.16137 6.77785 2.1859 7.67525C2.22176 8.98427 2.24906 9.34269 2.32401 9.48764C2.37537 9.587 2.49526 9.70854 2.59038 9.75772C2.68556 9.8069 2.8058 9.84718 2.85769 9.84718C2.90958 9.84718 3.02982 9.8069 3.125 9.75772C3.22012 9.70854 3.34189 9.58335 3.39556 9.47956C3.48277 9.31085 3.48861 9.1123 3.45028 7.60856C3.42015 6.42692 3.38406 5.8703 3.32886 5.7382C3.28564 5.63483 3.16988 5.50863 3.07163 5.4578C2.97339 5.40703 2.82738 5.36545 2.74718 5.36545C2.66698 5.36545 2.5205 5.43351 2.42167 5.51665ZM4.32327 5.47903C4.21624 5.54431 4.11027 5.67522 4.07295 5.78845C4.03338 5.90845 4.00236 6.66392 3.99316 7.73352C3.97812 9.48239 3.97812 9.48239 4.12024 9.63442C4.19838 9.71798 4.34775 9.80242 4.45212 9.822C4.5736 9.84482 4.70788 9.82353 4.82505 9.76297C4.92571 9.7109 5.05256 9.58246 5.10687 9.47762C5.19066 9.31592 5.20995 9.02089 5.23395 7.53479C5.2622 5.78267 5.2622 5.78267 5.05356 5.57403C4.91215 5.43262 4.79091 5.36551 4.67692 5.36569C4.58445 5.36581 4.42535 5.41682 4.32327 5.47903ZM20.1949 5.62239C20.3904 5.71167 20.6904 5.92119 20.8654 6.09067C21.0396 6.25938 21.2964 6.57151 21.436 6.78422C21.5756 6.99698 21.7475 7.34195 21.818 7.55083C21.8886 7.75976 21.983 8.10314 22.0278 8.31396C22.0727 8.52478 22.1098 8.95367 22.1104 9.26703C22.111 9.5804 22.0733 10.0315 22.0268 10.2695C21.9803 10.5075 21.889 10.8544 21.8239 11.0403C21.7589 11.2263 21.6253 11.4953 21.527 11.6381C21.4287 11.7809 21.216 12.0426 21.0541 12.2196C20.8449 12.4486 20.653 12.5875 20.389 12.701C20.1849 12.7888 19.9782 12.882 19.9295 12.9081C19.8579 12.9466 19.8333 13.1726 19.8003 14.0993C19.778 14.7283 19.7622 16.8749 19.7654 18.8696C19.7711 22.4963 19.7711 22.4963 19.2164 22.4963C18.6617 22.4963 18.6617 22.4963 18.6322 17.7279C18.6027 12.9595 18.6027 12.9595 18.2443 12.8297C18.0473 12.7584 17.7917 12.6417 17.6765 12.5705C17.5613 12.4994 17.3592 12.3241 17.2274 12.181C17.0956 12.038 16.9068 11.7608 16.808 11.565C16.7092 11.3692 16.5607 10.9758 16.4781 10.6909C16.3821 10.3596 16.3154 9.94908 16.293 9.55292C16.2649 9.05568 16.283 8.803 16.3844 8.27492C16.4539 7.91284 16.5471 7.5148 16.5915 7.39037C16.6358 7.26588 16.7435 7.01402 16.8308 6.83068C16.918 6.64729 17.0801 6.39136 17.1909 6.26192C17.3017 6.13248 17.532 5.93398 17.7027 5.82088C17.8734 5.70778 18.1324 5.57197 18.2784 5.51901C18.4789 5.44636 18.7024 5.42749 19.1924 5.44182C19.7498 5.4581 19.8908 5.48351 20.1949 5.62239Z" fill="white"/>
</svg>
